<?xml version="1.0" encoding="UTF-8"?>
<svg width="24px" height="24px" viewBox="0 0 24 24" version="1.1" xmlns="http://www.w3.org/2000/svg" xmlns:xlink="http://www.w3.org/1999/xlink">
    <title>F118649B-A55D-4E1F-8721-87B55F2C01D1</title>
    <g id="Page-1" stroke="none" stroke-width="1" fill="none" fill-rule="evenodd">
        <g id="100-Movies-Listing-Desktop" transform="translate(-589.000000, -1867.000000)" fill="#FFFFFF">
            <g id="Organisms/Footer/#7" transform="translate(0.000000, 1828.000000)">
                <g id="Group" transform="translate(398.000000, 39.000000)">
                    <g id="Atoms-/-icons-/-System-/-External-Link" transform="translate(191.000000, 0.000000)">
                        <path d="M10.25,6.5 C10.6642136,6.5 11,6.83578644 11,7.25 C11,7.66421356 10.6642136,8 10.25,8 L6.5,8 L6.5,17 L17,17 L17,14.75 C17,14.3357864 17.3357864,14 17.75,14 C18.1642136,14 18.5,14.3357864 18.5,14.75 L18.5,18.5 L5,18.5 L5,6.5 L10.25,6.5 Z M20,5 L20,12.3331262 C20,12.7245219 19.6827111,13.0418108 19.2913154,13.0418108 C18.8998172,13.0418108 18.5823469,12.7246246 18.5819964,12.3331265 L18.5819964,12.3331265 L18.5776047,7.42762164 L12.9634155,13.0418108 C12.68583,13.3193964 12.2357748,13.3193964 11.9581892,13.0418108 C11.6806036,12.7642252 11.6806036,12.31417 11.9581892,12.0365845 L11.9581892,12.0365845 L17.5723784,6.42239529 L12.6668735,6.41800361 C12.2753754,6.41765312 11.9581892,6.10018285 11.9581892,5.70868458 C11.9581892,5.31728889 12.2754781,5 12.6668738,5 L12.6668738,5 L20,5 Z" id="Combined-Shape"></path>
                    </g>
                </g>
            </g>
        </g>
    </g>
</svg>