<?xml version="1.0" encoding="UTF-8"?>
<svg width="20px" height="20px" viewBox="0 0 20 20" version="1.1" xmlns="http://www.w3.org/2000/svg" xmlns:xlink="http://www.w3.org/1999/xlink">
    <title>7F76CE33-F956-4EE9-BD46-E4FE62D84CF7</title>
    <defs>
        <path d="M10.1049405,15.5598598 C14.8698219,11.2298316 16.3645115,9.69020493 17.3399599,7.87493471 C17.7899086,7.03759844 18,6.27440695 18,5.5 C18,3.5245695 16.4754305,2 14.5,2 C13.3777273,2 12.2536278,2.52834499 11.5227039,3.38667757 L10,5.17480696 L8.47729606,3.38667757 C7.74637222,2.52834499 6.62227272,2 5.5,2 C3.5245695,2 2,3.5245695 2,5.5 C2,6.27778488 2.21194377,7.04433848 2.66600734,7.88573211 C3.64455505,9.6990108 5.14926481,11.2463901 9.89636063,15.5510433 L10.0051144,15.6500467 L10.1049405,15.5598598 Z M8.5802475,0.880992013 L10,2.09 L11.4197525,0.880992013 C12.3334166,0.322080972 13.4027912,0 14.5,0 C17.58,0 20,2.42 20,5.5 C20,9.28 16.6,12.36 11.45,17.04 L10,18.35 L8.55,17.03 C3.4,12.36 0,9.28 0,5.5 C0,2.42 2.42,0 5.5,0 C6.59720878,0 7.6665834,0.322080972 8.5802475,0.880992013 Z" id="path-1"></path>
    </defs>
    <g id="Page-1" stroke="none" stroke-width="1" fill="none" fill-rule="evenodd">
        <g id="100-Movies-Listing-Desktop" transform="translate(-95.000000, -1684.000000)">
            <g id="Group" transform="translate(79.000000, 1088.000000)">
                <g id="text" transform="translate(0.000000, 380.210145)">
                    <g id="circle_icon-heart" transform="translate(1.000000, 200.039175)">
                        <g id="Group" transform="translate(13.000000, 13.000000)">
                            <g id="icon_heart" transform="translate(2.000000, 3.000000)">
                                <mask id="mask-2" fill="white">
                                    <use xlink:href="#path-1"></use>
                                </mask>
                                <use id="Mask" fill="#979797" fill-rule="nonzero" xlink:href="#path-1"></use>
                                <g id="↪🎨" mask="url(#mask-2)" fill="#FFFFFF">
                                    <g transform="translate(-2.000000, -3.000000)" id="Atoms-/-Colors-/-Black">
                                        <rect x="0" y="0" width="24" height="24"></rect>
                                    </g>
                                </g>
                            </g>
                        </g>
                    </g>
                </g>
            </g>
        </g>
    </g>
</svg>