<?xml version="1.0" encoding="UTF-8"?>
<svg width="42px" height="40px" viewBox="0 0 42 40" version="1.1" xmlns="http://www.w3.org/2000/svg" xmlns:xlink="http://www.w3.org/1999/xlink">
    <title>9A1D47E1-ABA9-462B-A161-707F784FD05A</title>
    <g id="Page-1" stroke="none" stroke-width="1" fill="none" fill-rule="evenodd">
        <g id="100-Movies-Listing-Desktop" transform="translate(-80.000000, -35.000000)">
            <g id="ew-logo" transform="translate(80.000000, 35.000000)">
                <path d="M42,33.9991193 C42,37.3133211 39.3154707,40 36.0004404,40 C32.6873922,40 30,37.3133211 30,33.9991193 C30,30.6862385 32.6873922,28 36.0004404,28 C39.3154707,28 42,30.6862385 42,33.9991193" id="Fill-1" fill="#6DB049"></path>
                <path d="M27,33.9991193 C27,37.3133211 24.3151177,40 21.0026407,40 C17.6853224,40 15,37.3133211 15,33.9991193 C15,30.6862385 17.6853224,28 21.0026407,28 C24.3151177,28 27,30.6862385 27,33.9991193" id="Fill-2" fill="#8E8F8B"></path>
                <path d="M12,33.9991193 C12,37.3133211 9.31359058,40 5.99900919,40 C2.68684978,40 0,37.3133211 0,33.9991193 C0,30.6862385 2.68684978,28 5.99900919,28 C9.31359058,28 12,30.6862385 12,33.9991193" id="Fill-3" fill="#2D2E2C"></path>
                <path d="M42,19.0008808 C42,22.3132225 39.3154707,25 36.0004404,25 C32.6873922,25 30,22.3132225 30,19.0008808 C30,15.6852362 32.6873922,13 36.0004404,13 C39.3154707,13 42,15.6852362 42,19.0008808" id="Fill-4" fill="#2D2E2C"></path>
                <path d="M27,5.99988991 C27,9.31393237 24.3151177,12 21.0026407,12 C17.6853224,12 15,9.31393237 15,5.99988991 C15,2.68694838 17.6853224,0 21.0026407,0 C24.3151177,0 27,2.68694838 27,5.99988991" id="Fill-5" fill="#8E8F8B"></path>
            </g>
        </g>
    </g>
</svg>